<?xml version="1.0" standalone="no"?><!DOCTYPE svg PUBLIC "-//W3C//DTD SVG 1.1//EN" "http://www.w3.org/Graphics/SVG/1.1/DTD/svg11.dtd"><svg t="1577350291795" class="icon" viewBox="0 0 1024 1024" version="1.1" xmlns="http://www.w3.org/2000/svg" p-id="3251" width="32" height="32" xmlns:xlink="http://www.w3.org/1999/xlink"><defs><style type="text/css"></style></defs><path d="M928 320m-32 0a32 32 0 1 0 64 0 32 32 0 1 0-64 0Z" fill="#48A2D2" p-id="3252"></path><path d="M512 992C246.4 992 32 777.6 32 512S246.4 32 512 32c137.6 0 268.8 60.8 361.6 163.2 12.8 12.8 9.6 32-3.2 44.8-12.8 12.8-32 9.6-44.8-3.2A422.4 422.4 0 0 0 512 96C281.6 96 96 281.6 96 512s185.6 416 416 416 416-185.6 416-416c0-19.2 12.8-32 32-32s32 12.8 32 32c0 265.6-214.4 480-480 480z" fill="#48A2D2" p-id="3253"></path><path d="M512 704c-70.4 0-128-57.6-128-128 0-12.8 3.2-28.8 6.4-41.6l3.2-6.4 105.6-192c9.6-16 28.8-22.4 44.8-12.8 16 9.6 22.4 28.8 12.8 44.8l-102.4 192c-6.4 3.2-6.4 9.6-6.4 16 0 35.2 28.8 64 64 64s64-28.8 64-64c0-28.8-19.2-54.4-48-60.8-16-3.2-28.8-22.4-22.4-38.4 3.2-16 22.4-28.8 38.4-22.4 57.6 16 96 64 96 124.8 0 67.2-57.6 124.8-128 124.8zM288 512c-19.2 0-32-12.8-32-32s12.8-32 32-32 32-12.8 32-32-12.8-32-32-32-32 12.8-32 32-12.8 32-32 32-32-12.8-32-32c0-54.4 41.6-96 96-96s96 41.6 96 96-41.6 96-96 96z" fill="#48A2D2" p-id="3254"></path><path d="M288 704c-70.4 0-128-57.6-128-128 0-19.2 12.8-32 32-32s32 12.8 32 32c0 35.2 28.8 64 64 64s64-28.8 64-64-28.8-64-64-64c-19.2 0-32-12.8-32-32s12.8-32 32-32c70.4 0 128 57.6 128 128s-57.6 128-128 128zM736 704c-70.4 0-128-57.6-128-128v-128c0-70.4 57.6-128 128-128s128 57.6 128 128v128c0 70.4-57.6 128-128 128z m0-320c-35.2 0-64 28.8-64 64v128c0 35.2 28.8 64 64 64s64-28.8 64-64v-128c0-35.2-28.8-64-64-64z" fill="#48A2D2" p-id="3255"></path></svg>